<svg width="1024" height="1024" viewBox="0 0 1024 1024" xmlns="http://www.w3.org/2000/svg">
	<circle fill="#33CC33" cx="512" cy="512" r="512"/>
	<path fill="#FFFFFF" d="M290.5 689.3c-10 0-20-3.8-27.6-11.4L97 512l165.9-165.9c15.2-15.2 39.9-15.2 55.2 0s15.2 39.9 0 55.2L207.3 512l110.8 110.8c15.2 15.2 15.2 39.9 0 55.2-7.6 7.5-17.6 11.3-27.6 11.3zM733.5 689.3c-10 0-20-3.8-27.6-11.4-15.2-15.2-15.2-39.9 0-55.2L816.7 512 705.9 401.2c-15.2-15.2-15.2-39.9 0-55.2 15.2-15.2 39.9-15.2 55.2 0L927 512 761.1 677.9c-7.6 7.6-17.6 11.4-27.6 11.4zM431.5 776.5c-4.4 0-8.8-.7-13.1-2.3-20.3-7.2-30.9-29.6-23.6-49.8l161-451c7.2-20.3 29.6-30.9 49.8-23.6 20.3 7.2 30.9 29.6 23.6 49.8l-161 451c-5.7 16-20.7 25.9-36.7 25.9z"/>
</svg>