<svg width="1024" height="1024" viewBox="0 0 1024 1024" xmlns="http://www.w3.org/2000/svg">
	<path d="M512 0C229.2 0 0 229.2 0 512s229.2 512 512 512 512-229.2 512-512S794.8 0 512 0zM318.1 622.8c15.2 15.2 15.2 39.9 0 55.2-7.6 7.6-17.6 11.4-27.6 11.4s-20-3.8-27.6-11.4L97 512l165.9-165.9c15.2-15.2 39.9-15.2 55.2 0s15.2 39.9 0 55.2L207.3 512l110.8 110.8zm311.1-323.2l-161 451c-5.7 16-20.7 25.9-36.7 25.9-4.4 0-8.8-.7-13.1-2.3-20.3-7.2-30.9-29.6-23.6-49.8l161-451c7.2-20.3 29.6-30.9 49.8-23.6 20.3 7.2 30.9 29.5 23.6 49.8zm131.9 378.3c-7.6 7.6-17.6 11.4-27.6 11.4s-20-3.8-27.6-11.4c-15.2-15.2-15.2-39.9 0-55.2L816.7 512 705.9 401.2c-15.2-15.2-15.2-39.9 0-55.2 15.2-15.2 39.9-15.2 55.2 0L927 512 761.1 677.9z"/>
</svg>